# xmcd
#
# Track frame offsets: 
#        150
#        14462
#        27449
#        42085
#        54974
#        64874
#        77099
#        89259
#        102224
#        118884
#        131324
#        151349
#
# Disc length: 2190 seconds
#
# Revision: 0
# Processed by: cddbd v1.5.1PL0 Copyright (c) Steve Scherf et al.
# Submitted via: ExactAudioCopy v0.95a5
#
DISCID=91088c0c
DTITLE=Merle Haggard - The Best of Merle Haggard
DYEAR=2004
DGENRE=Country
TTITLE0=Branded Man
TTITLE1=Swinging Doors
TTITLE2=I'm a Lonely Fugitive
TTITLE3=Sing Me Back Home
TTITLE4=Mama Tried
TTITLE5=Okie From Muskogee
TTITLE6=Workin' Man Blues
TTITLE7=The Fightin' Side Of Me
TTITLE8=Daddy Frank
TTITLE9=If We Made It Through December
TTITLE10=Pancho And Lefty
TTITLE11=That's The Way Love Goes
EXTD=
EXTT0=
EXTT1=
EXTT2=
EXTT3=
EXTT4=
EXTT5=
EXTT6=
EXTT7=
EXTT8=
EXTT9=
EXTT10=
EXTT11=
PLAYORDER=
